<mxfile host="65bd71144e">
    <diagram id="GTUp7Cj4mrkazBVg7EDl" name="PÃ¡gina-1">
        <mxGraphModel dx="1762" dy="532" grid="1" gridSize="10" guides="1" tooltips="1" connect="1" arrows="1" fold="1" page="1" pageScale="1" pageWidth="827" pageHeight="1169" math="0" shadow="0">
            <root>
                <mxCell id="0"/>
                <mxCell id="1" parent="0"/>
                <mxCell id="4" value="" style="edgeStyle=none;html=1;" edge="1" parent="1" source="2" target="3">
                    <mxGeometry relative="1" as="geometry"/>
                </mxCell>
                <mxCell id="2" value="INICIO" style="rounded=1;whiteSpace=wrap;html=1;fillColor=#0000FF;" vertex="1" parent="1">
                    <mxGeometry x="-510" width="120" height="60" as="geometry"/>
                </mxCell>
                <mxCell id="6" value="" style="edgeStyle=none;html=1;" edge="1" parent="1" source="3" target="5">
                    <mxGeometry relative="1" as="geometry"/>
                </mxCell>
                <mxCell id="3" value="X" style="shape=parallelogram;perimeter=parallelogramPerimeter;whiteSpace=wrap;html=1;fixedSize=1;fillColor=#FF6666;" vertex="1" parent="1">
                    <mxGeometry x="-510" y="90" width="120" height="60" as="geometry"/>
                </mxCell>
                <mxCell id="8" value="" style="edgeStyle=none;html=1;" edge="1" parent="1" source="5" target="7">
                    <mxGeometry relative="1" as="geometry"/>
                </mxCell>
                <mxCell id="5" value="r= X%2" style="rounded=0;whiteSpace=wrap;html=1;fillColor=#FF3333;" vertex="1" parent="1">
                    <mxGeometry x="-510" y="180" width="120" height="60" as="geometry"/>
                </mxCell>
                <mxCell id="14" value="" style="edgeStyle=none;html=1;" edge="1" parent="1" source="7" target="13">
                    <mxGeometry relative="1" as="geometry"/>
                </mxCell>
                <mxCell id="16" value="" style="edgeStyle=none;html=1;" edge="1" parent="1" source="7" target="15">
                    <mxGeometry relative="1" as="geometry"/>
                </mxCell>
                <mxCell id="7" value="r = 0" style="rhombus;whiteSpace=wrap;html=1;fillColor=#808080;" vertex="1" parent="1">
                    <mxGeometry x="-490" y="270" width="80" height="80" as="geometry"/>
                </mxCell>
                <mxCell id="13" value="rta= &quot;Impar&quot;" style="whiteSpace=wrap;html=1;aspect=fixed;fillColor=#B3FF66;" vertex="1" parent="1">
                    <mxGeometry x="-650" y="265" width="90" height="90" as="geometry"/>
                </mxCell>
                <mxCell id="15" value="rta= &quot;Par&quot;" style="whiteSpace=wrap;html=1;aspect=fixed;fillColor=#99FF33;" vertex="1" parent="1">
                    <mxGeometry x="-360" y="275" width="80" height="80" as="geometry"/>
                </mxCell>
                <mxCell id="17" value="" style="endArrow=none;html=1;entryX=0.5;entryY=1;entryDx=0;entryDy=0;" edge="1" parent="1" target="13">
                    <mxGeometry width="50" height="50" relative="1" as="geometry">
                        <mxPoint x="-605" y="470" as="sourcePoint"/>
                        <mxPoint x="-570" y="370" as="targetPoint"/>
                    </mxGeometry>
                </mxCell>
                <mxCell id="18" value="" style="endArrow=none;html=1;entryX=0.5;entryY=1;entryDx=0;entryDy=0;" edge="1" parent="1" target="15">
                    <mxGeometry width="50" height="50" relative="1" as="geometry">
                        <mxPoint x="-320" y="470" as="sourcePoint"/>
                        <mxPoint x="-350" y="440" as="targetPoint"/>
                    </mxGeometry>
                </mxCell>
                <mxCell id="19" value="" style="endArrow=none;html=1;" edge="1" parent="1">
                    <mxGeometry width="50" height="50" relative="1" as="geometry">
                        <mxPoint x="-600" y="470" as="sourcePoint"/>
                        <mxPoint x="-320" y="470" as="targetPoint"/>
                    </mxGeometry>
                </mxCell>
                <mxCell id="20" value="" style="endArrow=classic;html=1;" edge="1" parent="1">
                    <mxGeometry width="50" height="50" relative="1" as="geometry">
                        <mxPoint x="-460" y="470" as="sourcePoint"/>
                        <mxPoint x="-460" y="520" as="targetPoint"/>
                    </mxGeometry>
                </mxCell>
                <mxCell id="24" value="" style="edgeStyle=none;html=1;" edge="1" parent="1" source="22" target="23">
                    <mxGeometry relative="1" as="geometry"/>
                </mxCell>
                <mxCell id="22" value="rta" style="shape=document;whiteSpace=wrap;html=1;boundedLbl=1;fillColor=#FF6666;" vertex="1" parent="1">
                    <mxGeometry x="-520" y="520" width="120" height="80" as="geometry"/>
                </mxCell>
                <mxCell id="23" value="FIN" style="rounded=1;whiteSpace=wrap;html=1;fillColor=#CCCC00;" vertex="1" parent="1">
                    <mxGeometry x="-520" y="640" width="120" height="60" as="geometry"/>
                </mxCell>
            </root>
        </mxGraphModel>
    </diagram>
</mxfile>